<svg width="18" height="24" viewBox="0 0 18 24" fill="none" xmlns="http://www.w3.org/2000/svg">
<path d="M8.34356 0.731205C5.75137 1.05933 3.74043 2.69058 2.95762 5.09527C2.69981 5.87808 2.66231 6.24371 2.63887 8.13277L2.61074 9.87183L2.29668 9.92339C1.53262 10.0406 0.951369 10.5187 0.651369 11.2734L0.538869 11.5546L0.524806 16.3828C0.515431 19.8421 0.524806 21.3 0.566994 21.5296C0.707619 22.3921 1.34512 23.0625 2.19356 23.2453C2.37168 23.2828 4.29356 23.2968 9.01387 23.2968C16.1154 23.2968 15.8295 23.3062 16.3498 23.0578C16.8795 22.8 17.3248 22.1718 17.4326 21.5296C17.4748 21.3 17.4842 19.8421 17.4748 16.3828L17.4607 11.5546L17.3482 11.2734C17.0482 10.5187 16.467 10.0406 15.7029 9.92339L15.3889 9.87183L15.3607 8.13277C15.3373 6.24371 15.2998 5.87808 15.042 5.09527C14.5217 3.49683 13.3967 2.17027 11.9248 1.42027C11.3904 1.14371 10.7717 0.92808 10.2139 0.820269C9.82949 0.745268 8.67168 0.689018 8.34356 0.731205ZM10.0217 2.22183C11.6061 2.55933 12.9279 3.65152 13.5607 5.15621C13.8795 5.90621 13.8889 5.98589 13.9076 8.02495L13.9264 9.89058H8.99981H4.07324L4.09199 8.02495C4.10606 6.29527 4.11543 6.14058 4.20918 5.80777C4.48106 4.84214 4.91699 4.12027 5.62481 3.44995C6.41699 2.70464 7.27949 2.31089 8.50762 2.13745C8.77012 2.09995 9.67949 2.15152 10.0217 2.22183ZM15.7029 11.3859C15.792 11.4328 15.9092 11.5453 15.9607 11.6296C16.0545 11.7843 16.0545 11.8734 16.0545 16.5937C16.0545 21.3 16.0545 21.4031 15.9607 21.5531C15.9092 21.6375 15.7826 21.7453 15.6795 21.7968C15.4873 21.8906 15.3654 21.8906 8.99981 21.8906C2.63418 21.8906 2.51231 21.8906 2.32012 21.7968C2.21699 21.7453 2.09043 21.6375 2.03887 21.5531C1.94512 21.4031 1.94512 21.3 1.94512 16.5937C1.94512 11.8453 1.94512 11.789 2.03887 11.625C2.09512 11.5359 2.20762 11.4234 2.29668 11.3812C2.45137 11.3015 2.86856 11.2968 8.99981 11.2968C15.2904 11.2968 15.5482 11.3015 15.7029 11.3859Z" fill="#F75C03"/>
<path d="M8.43708 13.4905C8.26833 13.5327 8.03864 13.6264 7.92145 13.6967C6.99333 14.2405 6.6277 15.4452 7.08708 16.4202C7.28864 16.842 7.62614 17.1936 8.01052 17.3764L8.29177 17.5077L8.29645 18.3749C8.29645 19.1061 8.31052 19.2702 8.38083 19.4061C8.61052 19.8702 9.38864 19.8702 9.61833 19.4061C9.68864 19.2702 9.7027 19.1061 9.7027 18.3749L9.70739 17.5077L9.98864 17.3764C10.6027 17.0858 11.048 16.4155 11.0949 15.717C11.1699 14.6249 10.5277 13.7202 9.51052 13.4764C9.12614 13.3874 8.81677 13.392 8.43708 13.4905ZM9.43083 14.9577C9.81989 15.2342 9.76833 15.9467 9.34645 16.1483C9.15427 16.2374 8.84489 16.2374 8.6527 16.1483C8.25895 15.9608 8.17927 15.2858 8.52145 14.9858C8.73708 14.7889 9.1777 14.7795 9.43083 14.9577Z" fill="#F75C03"/>
</svg>
