<svg width="22" height="24" viewBox="0 0 22 24" fill="none" xmlns="http://www.w3.org/2000/svg">
<path d="M4.78927 0.0936451C4.31114 0.281145 4.2877 0.318645 2.41739 3.5624C1.45645 5.22646 0.645515 6.67958 0.612702 6.79208C0.556452 6.96552 0.547077 8.34365 0.547077 14.7374C0.547077 23.3155 0.528327 22.7811 0.851765 23.2733C0.945515 23.414 1.12364 23.5921 1.26426 23.6858C1.76114 24.0233 1.02989 23.9999 11.0002 23.9999C20.9705 23.9999 20.2393 24.0233 20.7361 23.6858C20.8768 23.5921 21.0549 23.414 21.1486 23.2733C21.4721 22.7811 21.4533 23.3202 21.4533 14.6624V6.83896L21.3549 6.64208C21.2986 6.53427 20.483 5.11396 19.5455 3.49208C17.708 0.309271 17.6893 0.276459 17.1971 0.0936451C16.9533 -0.000104904 16.8268 -0.000104904 10.9861 0.00458336C5.20177 0.00458336 5.01427 0.00926971 4.78927 0.0936451ZM10.2971 3.67958V5.95302H6.49552C3.10177 5.95302 2.69395 5.94364 2.72208 5.88271C2.74552 5.82177 4.15645 3.35615 5.00958 1.88427L5.29083 1.40615H7.79395H10.2971V3.67958ZM18.0033 3.63271C18.7018 4.84208 19.2924 5.86396 19.3111 5.89208C19.344 5.93896 18.5799 5.95302 15.5518 5.95302H11.7502V3.67958V1.40615L14.2393 1.41552L16.7283 1.42958L18.0033 3.63271ZM20.0471 14.8921C20.0471 21.8343 20.0424 22.4296 19.9674 22.5093C19.8971 22.589 19.5549 22.5936 11.0096 22.5936C2.80645 22.5936 2.11739 22.589 2.0377 22.514C1.95801 22.4436 1.95333 22.1436 1.95333 14.8968V7.35927H11.0002H20.0471V14.8921Z" fill="#2BAD3F"/>
<path d="M13.3909 12.5202C13.3252 12.5437 12.5471 13.2937 11.6565 14.1843L10.0393 15.7968L9.4065 15.1593C9.05962 14.8124 8.71744 14.4937 8.64712 14.4562C8.35181 14.3015 7.94869 14.428 7.76587 14.728C7.65337 14.9108 7.644 15.2296 7.73775 15.4124C7.82212 15.5624 9.62212 17.3577 9.76744 17.4327C9.894 17.4983 10.1565 17.4983 10.3299 17.4327C10.4799 17.3765 14.2065 13.6827 14.3096 13.4905C14.3471 13.4202 14.3752 13.2655 14.3752 13.1483C14.3752 12.7546 14.1409 12.5062 13.7471 12.4827C13.6159 12.478 13.4565 12.4921 13.3909 12.5202Z" fill="#2BAD3F"/>
</svg>
