<svg width="24" height="24" viewBox="0 0 24 24" fill="none" xmlns="http://www.w3.org/2000/svg">
<path d="M2.2592 0.140625C1.42483 0.360937 0.702954 0.942186 0.332641 1.69219C-0.0236089 2.41406 -0.000171387 1.68281 -0.000171387 12C-0.000171387 19.95 0.00920361 21.3047 0.0701411 21.5859C0.299829 22.6734 1.17639 23.5781 2.27795 23.8594C2.62483 23.9484 2.81702 23.9531 7.40608 23.9531H12.1686L12.4076 23.8359C12.7451 23.6672 12.9045 23.4141 12.928 23.0156C12.9467 22.6359 12.8201 22.3594 12.5201 22.1484L12.3186 22.0078L7.53264 21.9844L2.74202 21.9609L2.55452 21.8578C2.32014 21.7312 2.17952 21.5859 2.08577 21.3656C2.02483 21.2109 2.01545 20.1891 2.01545 12C2.01545 3.81094 2.02483 2.78906 2.08577 2.63437C2.17952 2.41406 2.32014 2.26875 2.55452 2.14219L2.74202 2.03906L7.53264 2.01562L12.3186 1.99219L12.5201 1.85156C12.8201 1.64062 12.9467 1.36406 12.928 0.984375C12.9045 0.585938 12.7451 0.332811 12.4076 0.164062L12.1686 0.046875L7.38733 0.0515614C2.83108 0.0515614 2.58264 0.0562496 2.2592 0.140625Z" fill="#D0011A"/>
<path d="M16.6684 5.06242C16.0356 5.26399 15.7497 6.02805 16.1153 6.54836C16.1856 6.6468 17.2028 7.67336 18.3747 8.83586C19.5465 9.99367 20.5168 10.9593 20.5215 10.978C20.5309 11.0015 17.8825 11.0155 14.6387 11.0155H8.73716L8.53091 11.1187C8.2731 11.2546 8.0856 11.489 8.00591 11.7749C7.89341 12.2015 8.11841 12.6655 8.53091 12.8765L8.73716 12.9843H14.6387C17.8825 12.9843 20.5309 12.9984 20.5215 13.0218C20.5168 13.0405 19.5465 14.0062 18.3747 15.164C17.2028 16.3265 16.1856 17.353 16.1153 17.4515C15.5481 18.2577 16.5137 19.3218 17.4044 18.8577C17.5919 18.764 23.7934 12.6374 23.8965 12.4452C23.9997 12.2577 23.9997 11.7421 23.8965 11.5546C23.7934 11.3577 17.5919 5.23586 17.3997 5.13742C17.2122 5.03899 16.8512 5.00149 16.6684 5.06242Z" fill="#D0011A"/>
</svg>
