<svg width="24" height="24" viewBox="0 0 24 24" fill="none" xmlns="http://www.w3.org/2000/svg">
<path d="M15.3986 0.060833C15.272 0.0983334 15.047 0.182709 14.9064 0.25771C14.7657 0.328022 12.2626 1.77646 9.3423 3.47333L4.04074 6.5624H2.94386C1.74386 6.5624 1.54699 6.59052 1.10168 6.84365C0.590739 7.13427 0.154801 7.75302 0.0469889 8.33896C-0.0139486 8.67646 -0.0186361 21.8108 0.0469889 22.1905C0.187614 23.0671 0.932926 23.8124 1.80949 23.953C1.98293 23.9811 5.67199 23.9999 11.4845 23.9999C21.8064 23.9999 21.2579 24.014 21.7782 23.714C22.2517 23.4468 22.5986 23.0202 22.8095 22.4718C22.8845 22.2655 22.8939 22.0358 22.9126 20.339L22.9314 18.4358L23.0907 18.3561C23.3532 18.2343 23.7048 17.8686 23.8454 17.5827L23.9767 17.3202V15.2811V13.2421L23.8501 12.9749C23.7048 12.6608 23.3954 12.3327 23.1236 12.2061L22.9314 12.1171L22.9126 10.2186C22.8892 8.20302 22.8845 8.16552 22.6454 7.69208C22.5095 7.42958 22.0595 6.98896 21.7689 6.83427C21.6423 6.76396 21.3892 6.67021 21.2111 6.62333L20.8876 6.53896L19.3032 3.77333C17.7142 0.988958 17.4939 0.656147 17.0907 0.379583C16.6361 0.0655212 15.9048 -0.0704174 15.3986 0.060833ZM16.3361 1.1999C16.5236 1.28896 16.8423 1.59833 16.7954 1.64521C16.772 1.66396 14.8689 2.7749 12.5579 4.12021L8.36261 6.5624H7.31261C6.67511 6.5624 6.28136 6.54365 6.30949 6.52021C6.40793 6.42177 15.4032 1.21396 15.5814 1.14833C15.8017 1.06865 16.1017 1.0874 16.3361 1.1999ZM17.6392 3.06083L17.9017 3.51552L17.7986 3.58115C17.7423 3.61865 16.5657 4.30302 15.1876 5.10458L12.6845 6.5624H11.6298C11.0532 6.5624 10.5939 6.54833 10.6126 6.52958C10.6548 6.4874 17.3626 2.57802 17.372 2.59208C17.3767 2.59677 17.4939 2.80771 17.6392 3.06083ZM19.0267 5.48896C19.3407 6.03271 19.5939 6.49677 19.5939 6.52021C19.5939 6.54365 18.5814 6.5624 17.2407 6.5624C15.947 6.5624 14.9017 6.54833 14.9204 6.53427C14.9673 6.48271 18.3892 4.4999 18.4267 4.4999C18.4454 4.4999 18.7173 4.94521 19.0267 5.48896ZM21.0517 7.69677C21.2954 7.76708 21.6001 8.03896 21.7079 8.26865C21.7876 8.44677 21.797 8.61083 21.797 10.228V11.9999H20.0532C19.0642 11.9999 18.1736 12.0233 18.0048 12.0515C16.8282 12.239 15.8064 13.1296 15.4361 14.2827C14.8829 16.0218 15.872 17.8733 17.6486 18.4171C18.0142 18.5296 18.0704 18.5296 19.9126 18.553L21.797 18.5718V20.339C21.797 22.1015 21.797 22.1108 21.6892 22.3171C21.5439 22.589 21.2532 22.8093 20.9439 22.8702C20.7657 22.9077 17.9486 22.9218 11.297 22.9124C2.23136 22.8983 1.89386 22.8936 1.73449 22.8093C1.5048 22.6874 1.32199 22.5093 1.2048 22.289L1.10168 22.1015V15.2811C1.10168 8.67646 1.10636 8.45615 1.19074 8.28271C1.30793 8.04365 1.52355 7.83271 1.75793 7.72958C1.93605 7.64521 2.34386 7.64052 11.4095 7.64052C18.4595 7.64052 20.9204 7.65458 21.0517 7.69677ZM22.5423 13.139C22.6314 13.1718 22.7486 13.2561 22.8001 13.3265C22.8939 13.4577 22.8986 13.5046 22.8986 15.253C22.8986 16.739 22.8845 17.0718 22.8282 17.1749C22.6923 17.4374 22.6923 17.4374 20.3486 17.4374C17.9579 17.4374 17.8923 17.428 17.3954 17.114C16.2095 16.3499 16.0314 14.7233 17.0298 13.7249C17.3064 13.4483 17.8314 13.1811 18.197 13.1249C18.6236 13.064 22.3595 13.0733 22.5423 13.139Z" fill="#F75C03"/>
<path d="M18.0705 14.3015C17.8127 14.4375 17.6908 14.5594 17.5736 14.7984C17.4424 15.0703 17.4424 15.4828 17.569 15.7312C17.7658 16.1156 18.0518 16.3078 18.4736 16.3453C18.708 16.3687 18.7877 16.3547 19.008 16.2469C19.7018 15.9047 19.8424 15.0047 19.2799 14.475C18.9846 14.1937 18.4268 14.114 18.0705 14.3015Z" fill="#F75C03"/>
</svg>
