<svg width="19" height="20" viewBox="0 0 19 20" fill="none" xmlns="http://www.w3.org/2000/svg">
<path d="M8.5833 0.0513916C8.0247 0.129517 7.57548 0.270142 7.05205 0.535767C5.31377 1.41077 4.29423 3.36389 4.49345 5.41858C4.61455 6.64123 5.01689 7.60608 5.79033 8.52795C6.22783 9.05139 6.90361 9.55139 7.53252 9.81311C9.62627 10.6881 11.9192 9.95373 13.2395 7.98108C14.2825 6.42639 14.431 4.28577 13.6145 2.63342C12.6927 0.766235 10.72 -0.245483 8.5833 0.0513916ZM10.1966 1.57874C11.0833 1.80139 11.8841 2.44202 12.2903 3.26233C12.5755 3.84045 12.6731 4.28186 12.6692 4.97327C12.6614 6.05139 12.2747 7.02405 11.5716 7.73108C11.2435 8.06311 11.0403 8.21155 10.6497 8.40686C9.80986 8.82092 8.80205 8.82092 7.9622 8.40686C7.57158 8.21155 7.36845 8.06311 7.04033 7.73108C5.56377 6.2428 5.56767 3.59045 7.04814 2.27795C7.87236 1.55139 9.04423 1.28967 10.1966 1.57874Z" fill="#F75C03"/>
<path d="M8.52452 11.2856C5.54014 11.4106 3.18467 12.3364 1.77842 13.938C0.69639 15.1685 0.114359 16.7231 0.0127961 18.6489C-0.0340789 19.5278 0.0362336 19.7427 0.419046 19.9185C0.57139 19.9888 0.899515 19.9927 9.30577 19.9927C17.712 19.9927 18.0401 19.9888 18.1925 19.9185C18.5753 19.7427 18.6456 19.5278 18.5987 18.6489C18.3722 14.3521 15.6925 11.8013 10.9269 11.3442C10.1378 11.27 9.34873 11.2505 8.52452 11.2856ZM10.5558 12.7661C13.3409 13.0161 15.1378 13.8872 16.1886 15.4966C16.6651 16.2271 17.0206 17.2935 17.1026 18.2231L17.13 18.5474H9.30577H1.48155L1.50889 18.2271C1.52451 18.0474 1.5792 17.7075 1.62998 17.4731C2.02061 15.6606 3.0128 14.3794 4.63389 13.6021C5.53623 13.1685 6.52061 12.9185 7.86045 12.7856C8.46983 12.7231 9.95811 12.7153 10.5558 12.7661Z" fill="#F75C03"/>
</svg>
