<svg width="24" height="24" viewBox="0 0 24 24" fill="none" xmlns="http://www.w3.org/2000/svg">
<g id="calendar-_1_ 1" clip-path="url(#clip0_1_1648)">
<g id="Group">
<path id="Vector" d="M5.69531 0.0656242C5.52188 0.145311 5.36719 0.309374 5.30156 0.482811C5.27344 0.557812 5.25 0.895311 5.25 1.24219V1.86562L3.88125 1.88437C2.53594 1.89844 2.49844 1.90312 2.15156 2.025C1.17656 2.36719 0.496875 3.04219 0.154688 4.00781L0.0234375 4.38281V12.9375V21.4922L0.154688 21.8672C0.496875 22.8328 1.17188 23.5031 2.15156 23.85L2.50781 23.9766H12H21.4922L21.8672 23.8453C22.8328 23.5031 23.5031 22.8281 23.85 21.8484L23.9766 21.4922V12.9375V4.38281L23.85 4.02656C23.5031 3.04688 22.8328 2.37187 21.8672 2.02969C21.4969 1.90312 21.4828 1.89844 20.1234 1.88437L18.7547 1.86562L18.7406 1.17188C18.7266 0.412498 18.7031 0.342186 18.4031 0.121874C18.2203 -0.0140629 17.7797 -0.0140629 17.5969 0.121874C17.2969 0.342186 17.2734 0.412498 17.2594 1.17656L17.2453 1.875H12H6.75469L6.74063 1.17656C6.72656 0.417187 6.70313 0.342186 6.4125 0.126562C6.25313 0.00937462 5.88281 -0.0234375 5.69531 0.0656242ZM5.25938 3.88594C5.27344 4.43906 5.31563 4.54688 5.59688 4.75312C5.77969 4.88906 6.22031 4.88906 6.40313 4.75312C6.68438 4.54688 6.72656 4.43906 6.74063 3.88594L6.75938 3.375H12H17.2406L17.2594 3.88594C17.2734 4.43906 17.3156 4.54688 17.5969 4.75312C17.7797 4.88906 18.2203 4.88906 18.4031 4.75312C18.6844 4.54688 18.7266 4.43906 18.7406 3.88594L18.7594 3.37031L20.0297 3.38437L21.3047 3.39844L21.5719 3.52969C21.9094 3.69375 22.1813 3.96562 22.3453 4.30312C22.4766 4.57031 22.4766 4.575 22.4906 5.65781L22.5047 6.75H12.0047H1.5V5.75156C1.5 5.01094 1.51875 4.69219 1.56563 4.52344C1.71094 4.05 2.11875 3.62344 2.59219 3.45937C2.80313 3.38906 3.00938 3.37969 4.04063 3.375H5.24063L5.25938 3.88594ZM22.4906 14.775L22.4766 21.3047L22.35 21.5625C22.1859 21.8953 21.8953 22.1859 21.5672 22.35L21.3047 22.4766H12H2.69531L2.4375 22.35C2.10469 22.1859 1.81406 21.8953 1.65 21.5672L1.52344 21.3047L1.50938 14.775L1.5 8.25H12H22.5L22.4906 14.775Z" fill="#F75C03"/>
</g>
</g>
<defs>
<clipPath id="clip0_1_1648">
<rect width="24" height="24" fill="white"/>
</clipPath>
</defs>
</svg>
