<svg width="152" height="152" viewBox="0 0 152 152" fill="none" xmlns="http://www.w3.org/2000/svg">
<g id="check-_1_ 1" clip-path="url(#clip0_1_3206)">
<g id="Group">
<path id="Vector" d="M69.172 0.296783C54.5063 1.72179 40.9688 7.12491 29.0938 16.2687C23.3048 20.7218 15.7938 29.0937 11.4595 35.9218C9.58916 38.8608 5.9376 46.3421 4.63135 49.9046C3.17666 53.8827 1.60322 59.9983 0.831348 64.7187C-0.0889648 70.5077 -0.0889648 81.4921 0.831348 87.2812C2.16729 95.4749 4.2751 102.066 7.86729 109.398C11.786 117.384 15.8532 123.055 22.3845 129.616C28.9454 136.147 34.6157 140.214 42.6017 144.133C49.9345 147.725 56.5251 149.833 64.7188 151.169C70.5079 152.089 81.4923 152.089 87.2813 151.169C95.4751 149.833 102.066 147.725 109.399 144.133C117.384 140.214 123.055 136.147 129.616 129.616C136.147 123.055 140.214 117.384 144.133 109.398C146.745 104.084 148.052 100.611 149.477 95.2671C151.347 88.1421 151.792 84.253 151.792 75.9999C151.792 67.7468 151.347 63.8577 149.477 56.7327C148.052 51.389 146.745 47.9155 144.133 42.6015C140.214 34.6155 136.147 28.9452 129.616 22.3843C123.055 15.853 117.384 11.7858 109.399 7.8671C102.095 4.2749 95.3267 2.13741 87.4298 0.890533C83.0657 0.207718 73.3282 -0.118851 69.172 0.296783ZM83.0657 12.2015C97.5532 13.7749 110.794 20.2171 121.303 30.6968C133.624 43.0171 140.125 58.6921 140.125 75.9999C140.125 93.3077 133.624 108.983 121.303 121.303C108.983 133.623 93.3079 140.125 76.0001 140.125C58.6923 140.125 43.0173 133.623 30.697 121.303C18.3767 108.983 11.8751 93.3077 11.8751 75.9999C11.8751 58.6921 18.3767 43.0171 30.697 30.6968C41.0579 20.3358 54.447 13.8046 68.5782 12.2015C71.8438 11.8452 79.7407 11.8155 83.0657 12.2015Z" fill="#2BAD3F"/>
<path id="Vector_2" d="M104.263 48.7467C103.372 49.2217 97.6126 55.3967 84.8767 69.4389L66.708 89.4186L57.3267 80.0671C48.9845 71.7249 47.797 70.6561 46.6095 70.3592C43.908 69.6467 41.2064 70.8639 39.9595 73.3874C39.0392 75.228 38.9798 76.5936 39.7814 78.3155C40.5236 79.9186 62.3439 102.244 64.1845 103.223C65.6392 104.025 67.4798 104.114 69.172 103.431C70.122 103.045 74.2189 98.7108 91.022 80.2155C105.064 64.778 111.892 57.0296 112.308 56.1389C114.445 51.3296 108.894 46.253 104.263 48.7467Z" fill="#2BAD3F"/>
</g>
</g>
<defs>
<clipPath id="clip0_1_3206">
<rect width="152" height="152" fill="white"/>
</clipPath>
</defs>
</svg>
