<svg width="26" height="26" viewBox="0 0 26 26" fill="none" xmlns="http://www.w3.org/2000/svg">
<g id="clock-_1_ 1">
<g id="Group">
<path id="Vector" d="M12.0601 1.12231C8.08902 1.44731 4.55465 3.71215 2.59449 7.19575C0.94918 10.1207 0.639415 13.7008 1.74645 16.9051C2.33551 18.5961 3.21402 20.0079 4.48863 21.318C8.06871 24.9895 13.5886 25.9543 18.2046 23.7149C20.698 22.5012 22.7648 20.3684 23.8668 17.875C25.6847 13.7668 25.0957 9.12036 22.3129 5.57583C21.6578 4.74301 20.3578 3.56489 19.4488 2.98598C18.4382 2.34106 17.1839 1.78755 16.0718 1.49809C15.2289 1.27465 14.6652 1.18325 13.8121 1.11723C13.0504 1.06137 12.8015 1.06137 12.0601 1.12231ZM14.5484 3.37192C15.5742 3.55473 16.3105 3.79341 17.2093 4.21997C20.9671 6.01762 23.1609 9.98364 22.6734 14.1172C22.2519 17.743 19.8347 20.8407 16.4273 22.1153C12.1414 23.72 7.3527 22.1559 4.83902 18.327C4.11285 17.22 3.63043 15.9707 3.36637 14.5235C3.24449 13.8481 3.24449 12.152 3.36637 11.4766C3.56441 10.4051 3.78785 9.68911 4.21949 8.79028C5.67184 5.75356 8.52066 3.72739 11.9332 3.3059C12.4765 3.23481 14.005 3.27544 14.5484 3.37192Z" fill="#F75C03"/>
<path id="Vector_2" d="M12.4915 5.54531C12.3645 5.61641 12.197 5.76875 12.1106 5.88555L11.9583 6.10391L11.9431 9.63828C11.9329 12.2078 11.9431 13.2336 11.9888 13.3809C12.0345 13.5484 12.3442 13.8836 13.7763 15.3258C15.6247 17.1793 15.7923 17.3164 16.2341 17.3164C17.0212 17.3164 17.5341 16.5141 17.2091 15.793C17.1329 15.6254 16.7013 15.1582 15.5891 14.041L14.0657 12.5176L14.0556 9.31328L14.0403 6.10898L13.9032 5.91094C13.6798 5.59609 13.4462 5.46406 13.0552 5.44375C12.7759 5.42852 12.6794 5.44883 12.4915 5.54531Z" fill="#F75C03"/>
</g>
</g>
</svg>
