<svg width="227" height="243" viewBox="0 0 227 243" fill="none" xmlns="http://www.w3.org/2000/svg">
<g id="Group 40028">
<g id="freepik--Character--inject-10">
<path id="Vector" d="M32.5082 74.479C31.8493 75.9765 31.123 77.5938 30.4866 79.1736C29.8502 80.7535 29.1913 82.3782 28.6148 83.9955C27.4318 87.1483 26.4833 90.3842 25.777 93.6767L25.5599 94.8747L25.485 95.3239C25.485 95.4512 25.485 95.616 25.4401 95.7657C25.4116 96.4947 25.4266 97.2248 25.485 97.952C25.6273 99.5319 25.8819 101.224 26.2338 102.916C26.8627 106.308 27.6639 109.805 28.48 113.249L24.639 114.746C22.8484 111.482 21.3236 108.08 20.0791 104.571C19.4235 102.745 18.8932 100.876 18.4918 98.9778C18.2669 97.9275 18.1267 96.8609 18.0725 95.7882C18.0725 95.4887 18.0725 95.2041 18.0725 94.8822C18.0725 94.5602 18.0725 94.2008 18.1249 93.9912L18.2747 92.4937C18.4984 90.5651 18.841 88.6522 19.3004 86.7659C19.7197 84.894 20.2588 83.0746 20.7979 81.2776C21.337 79.4806 22.0109 77.7136 22.7222 75.9765C23.0741 75.108 23.4709 74.2469 23.8153 73.3859C24.1598 72.5248 24.5641 71.7012 25.0433 70.7803L32.5082 74.479Z" fill="#E4897B"/>
<path id="Vector_2" d="M28.278 112.238L31.1981 115.09L24.8263 118.085C24.8263 118.085 23.2839 115.383 24.3546 112.942L28.278 112.238Z" fill="#E4897B"/>
<path id="Vector_3" d="M33.5566 119.336L28.1731 121.537L24.8337 118.055L31.198 115.09L33.5566 119.336Z" fill="#E4897B"/>
<path id="Vector_4" opacity="0.4" d="M142.61 116.266C132.016 115.077 122.013 110.773 113.865 103.899C105.716 97.0249 99.7889 87.8894 96.8318 77.6472C93.8747 67.405 94.0207 56.516 97.2513 46.3568C100.482 36.1975 106.652 27.2242 114.982 20.5711C123.311 13.918 133.427 9.88395 144.049 8.97886C154.671 8.07377 165.323 10.3383 174.658 15.4862C183.993 20.634 191.592 28.4341 196.495 37.9003C201.398 47.3665 203.384 58.0739 202.203 68.6687C201.418 75.7079 199.253 82.5234 195.833 88.7257C192.413 94.928 187.804 100.396 182.269 104.816C176.735 109.236 170.384 112.523 163.579 114.487C156.774 116.452 149.649 117.056 142.61 116.266Z" fill="#FAFAFA"/>
<path id="Vector_5" opacity="0.4" d="M181.83 20.2177L99.8426 85.7249C99.4981 84.9762 99.1612 84.2274 98.8467 83.4787C96.7913 78.5896 95.4766 73.4214 94.9458 68.1445L165.762 11.5623C171.576 13.5016 177.011 16.4297 181.83 20.2177Z" fill="#FAFAFA"/>
<path id="Vector_6" opacity="0.4" d="M200.75 48.9168L123.667 110.501C116.344 106.683 109.999 101.231 105.121 94.5674L189.287 27.3157C194.712 33.5429 198.634 40.9334 200.75 48.9168Z" fill="#FAFAFA"/>
<path id="Vector_7" d="M87.9374 42.0884L87.2261 41.8488C88.458 38.2137 90.0063 34.6936 91.8533 31.329L92.5047 31.6884C90.6821 35.0153 89.1538 38.4953 87.9374 42.0884ZM97.0271 24.6128L96.4206 24.1711C102.574 15.851 110.627 9.12247 119.909 4.5466L120.245 5.22047C111.069 9.7491 103.109 16.4057 97.0271 24.6353V24.6128ZM179.081 6.24624C176.635 4.93389 174.103 3.78578 171.504 2.80953L171.774 2.10571C174.398 3.10487 176.955 4.27543 179.426 5.60981L179.081 6.24624Z" fill="#F75C03"/>
<path id="Vector_8" opacity="0.3" d="M87.9374 42.0884L87.2261 41.8488C88.458 38.2137 90.0063 34.6936 91.8533 31.329L92.5047 31.6884C90.6821 35.0153 89.1538 38.4953 87.9374 42.0884ZM97.0271 24.6128L96.4206 24.1711C102.574 15.851 110.627 9.12247 119.909 4.5466L120.245 5.22047C111.069 9.7491 103.109 16.4057 97.0271 24.6353V24.6128ZM179.081 6.24624C176.635 4.93389 174.103 3.78578 171.504 2.80953L171.774 2.10571C174.398 3.10487 176.955 4.27543 179.426 5.60981L179.081 6.24624Z" fill="black"/>
<path id="Vector_9" d="M204.351 35.155C197.418 20.7757 185.218 9.61581 170.279 3.98882C155.34 -1.63818 138.809 -1.30068 124.112 4.93135C109.415 11.1634 97.6804 22.812 91.34 37.4622C84.9995 52.1125 84.5399 68.6409 90.0564 83.6209C85.0548 85.373 80.1132 87.2523 75.2014 89.1915C68.1184 92.0018 61.1002 94.9369 54.1469 97.9967C47.1986 101.074 40.2802 104.211 33.4292 107.491C29.9925 109.101 26.6008 110.8 23.179 112.447C21.399 113.212 19.7862 114.319 18.432 115.704C17.6992 116.472 17.0538 117.318 16.5077 118.228C15.8414 119.304 15.3369 120.472 15.0103 121.694C14.4469 123.898 14.6905 126.23 15.6971 128.269C16.7037 130.309 18.4069 131.92 20.4985 132.813C21.66 133.3 22.8855 133.618 24.1374 133.757C25.1947 133.876 26.2622 133.876 27.3195 133.757C29.241 133.523 31.098 132.915 32.7853 131.967C36.1771 130.252 39.5914 128.598 42.9607 126.838C49.6994 123.401 56.438 119.815 63.0943 116.176C69.7506 112.537 76.4144 108.726 82.9134 104.818C87.4059 102.1 91.9432 99.322 96.3907 96.4169C104.931 109.899 118.331 119.579 133.814 123.451C149.297 127.322 165.676 125.089 179.557 117.213C193.438 109.337 203.757 96.4234 208.376 81.1467C212.994 65.8701 211.559 49.4021 204.366 35.155H204.351ZM170.314 106.682C161.612 110.977 151.833 112.595 142.212 111.333C132.591 110.07 123.56 105.983 116.262 99.5877C108.964 93.1928 103.725 84.7773 101.21 75.4055C98.6939 66.0336 99.0135 56.1263 102.128 46.9361C105.243 37.746 111.013 29.6857 118.708 23.7746C126.403 17.8634 135.679 14.3669 145.361 13.727C155.044 13.0871 164.699 15.3326 173.105 20.1796C181.511 25.0266 188.292 32.2574 192.589 40.9578C195.442 46.7357 197.13 53.0193 197.555 59.4495C197.98 65.8798 197.134 72.3307 195.066 78.434C192.997 84.5373 189.746 90.1733 185.5 95.0201C181.253 99.867 176.092 103.83 170.314 106.682Z" fill="#F75C03"/>
<path id="Vector_10" opacity="0.3" d="M204.351 35.155C197.418 20.7757 185.218 9.61581 170.279 3.98882C155.34 -1.63818 138.809 -1.30068 124.112 4.93135C109.415 11.1634 97.6804 22.812 91.34 37.4622C84.9995 52.1125 84.5399 68.6409 90.0564 83.6209C85.0548 85.373 80.1132 87.2523 75.2014 89.1915C68.1184 92.0018 61.1002 94.9369 54.1469 97.9967C47.1986 101.074 40.2802 104.211 33.4292 107.491C29.9925 109.101 26.6008 110.8 23.179 112.447C21.399 113.212 19.7862 114.319 18.432 115.704C17.6992 116.472 17.0538 117.318 16.5077 118.228C15.8414 119.304 15.3369 120.472 15.0103 121.694C14.4469 123.898 14.6905 126.23 15.6971 128.269C16.7037 130.309 18.4069 131.92 20.4985 132.813C21.66 133.3 22.8855 133.618 24.1374 133.757C25.1947 133.876 26.2622 133.876 27.3195 133.757C29.241 133.523 31.098 132.915 32.7853 131.967C36.1771 130.252 39.5914 128.598 42.9607 126.838C49.6994 123.401 56.438 119.815 63.0943 116.176C69.7506 112.537 76.4144 108.726 82.9134 104.818C87.4059 102.1 91.9432 99.322 96.3907 96.4169C104.931 109.899 118.331 119.579 133.814 123.451C149.297 127.322 165.676 125.089 179.557 117.213C193.438 109.337 203.757 96.4234 208.376 81.1467C212.994 65.8701 211.559 49.4021 204.366 35.155H204.351ZM170.314 106.682C161.612 110.977 151.833 112.595 142.212 111.333C132.591 110.07 123.56 105.983 116.262 99.5877C108.964 93.1928 103.725 84.7773 101.21 75.4055C98.6939 66.0336 99.0135 56.1263 102.128 46.9361C105.243 37.746 111.013 29.6857 118.708 23.7746C126.403 17.8634 135.679 14.3669 145.361 13.727C155.044 13.0871 164.699 15.3326 173.105 20.1796C181.511 25.0266 188.292 32.2574 192.589 40.9578C195.442 46.7357 197.13 53.0193 197.555 59.4495C197.98 65.8798 197.134 72.3307 195.066 78.434C192.997 84.5373 189.746 90.1733 185.5 95.0201C181.253 99.867 176.092 103.83 170.314 106.682Z" fill="black"/>
<path id="Vector_11" d="M53.2036 47.7413C53.2036 48.1831 53.4357 48.5425 53.7277 48.5425C54.0197 48.5425 54.2518 48.1831 54.2518 47.7413C54.2518 47.2996 54.0197 46.9402 53.7277 46.9402C53.4357 46.9402 53.2036 47.3295 53.2036 47.7413Z" fill="#263238"/>
<path id="Vector_12" d="M53.4131 48.5427C53.9431 49.8988 54.656 51.176 55.532 52.3388C55.2291 52.5555 54.8825 52.7033 54.5165 52.7719C54.1504 52.8404 53.7738 52.8281 53.4131 52.7357V48.5427Z" fill="#DE5753"/>
<path id="Vector_13" d="M51.6535 45.2778C51.6117 45.2778 51.5705 45.2684 51.5329 45.2502C51.4953 45.2321 51.4623 45.2057 51.4363 45.173C51.3973 45.1158 51.3818 45.0458 51.3929 44.9776C51.4041 44.9093 51.4411 44.8479 51.4962 44.8061C51.826 44.556 52.2113 44.3893 52.6194 44.3202C53.0274 44.2511 53.4461 44.2817 53.8398 44.4093C53.8752 44.4189 53.9081 44.4358 53.9365 44.459C53.9649 44.4821 53.9881 44.511 54.0047 44.5437C54.0213 44.5764 54.0308 44.6122 54.0326 44.6488C54.0345 44.6854 54.0287 44.722 54.0155 44.7562C54.0023 44.7904 53.9822 44.8214 53.9563 44.8474C53.9303 44.8733 53.8993 44.8935 53.8651 44.9066C53.8309 44.9198 53.7943 44.9257 53.7577 44.9238C53.7211 44.922 53.6853 44.9125 53.6526 44.8959C53.3399 44.8 53.0087 44.7806 52.6869 44.8392C52.3651 44.8978 52.062 45.0328 51.8032 45.2329C51.7588 45.2623 51.7067 45.2779 51.6535 45.2778Z" fill="#263238"/>
<path id="Vector_14" d="M38.0788 51.0735C38.8276 55.0942 39.6512 62.4693 36.8359 65.1573C36.8359 65.1573 37.9366 69.2379 45.4165 69.2379C53.6526 69.2379 49.3399 65.1573 49.3399 65.1573C44.8474 64.0791 44.9747 60.7547 45.7534 57.625L38.0788 51.0735Z" fill="#E4897B"/>
<path id="Vector_15" d="M33.4742 67.2758C34.3652 65.8906 32.8677 62.5288 32.8677 62.5288C32.8677 62.5288 46.1054 59.1969 51.5188 64.3108C52.6419 65.3665 51.399 66.9239 51.399 66.9239L33.4742 67.2758Z" fill="#F75C03"/>
<path id="Vector_16" opacity="0.1" d="M33.4742 67.2758C34.3652 65.8906 32.8677 62.5288 32.8677 62.5288C32.8677 62.5288 46.1054 59.1969 51.5188 64.3108C52.6419 65.3665 51.399 66.9239 51.399 66.9239L33.4742 67.2758Z" fill="black"/>
<path id="Vector_17" d="M11.5735 220.041C10.8772 220.041 9.76158 218.881 9.43213 218.446C9.41797 218.425 9.4104 218.401 9.4104 218.375C9.4104 218.35 9.41797 218.325 9.43213 218.304C9.44422 218.283 9.46172 218.266 9.48279 218.254C9.50387 218.242 9.52775 218.236 9.55193 218.237C9.63429 218.237 11.4687 218.402 11.9704 219.053C12.0249 219.122 12.0639 219.202 12.0845 219.287C12.1052 219.372 12.1071 219.461 12.0902 219.547C12.0836 219.659 12.0427 219.765 11.9729 219.852C11.9032 219.94 11.8081 220.003 11.7008 220.034L11.5735 220.041ZM9.83645 218.544C10.383 219.173 11.2591 219.884 11.6334 219.794C11.6334 219.794 11.7832 219.757 11.8281 219.517C11.8379 219.467 11.8363 219.416 11.8234 219.366C11.8104 219.317 11.7864 219.271 11.7532 219.233C11.1986 218.813 10.5312 218.568 9.83645 218.529V218.544Z" fill="#F75C03"/>
<path id="Vector_18" d="M9.91896 218.529C9.78453 218.542 9.64907 218.542 9.51464 218.529C9.49097 218.527 9.46837 218.518 9.44971 218.503C9.43105 218.489 9.41717 218.469 9.40982 218.446C9.39928 218.425 9.3938 218.402 9.3938 218.379C9.3938 218.356 9.39928 218.332 9.40982 218.312C9.46223 218.267 10.5629 217.121 11.394 217.121C11.4934 217.119 11.5922 217.138 11.6839 217.176C11.7755 217.215 11.8579 217.273 11.9256 217.346C12.0001 217.408 12.0511 217.494 12.0702 217.589C12.0893 217.685 12.0752 217.784 12.0304 217.87C11.8133 218.289 10.6677 218.529 9.91896 218.529ZM9.82162 218.267C10.5704 218.267 11.656 218.034 11.8357 217.705C11.8357 217.705 11.8881 217.608 11.7683 217.488C11.7248 217.441 11.6714 217.403 11.6119 217.379C11.5524 217.354 11.4882 217.343 11.4239 217.346C10.8101 217.487 10.2523 217.807 9.82162 218.267Z" fill="#F75C03"/>
<path id="Vector_19" d="M60.9829 237.038C60.4154 237.034 59.8492 236.981 59.2907 236.881C59.263 236.875 59.238 236.86 59.2202 236.838C59.2024 236.816 59.1929 236.789 59.1934 236.761C59.1892 236.735 59.1926 236.708 59.2033 236.684C59.2139 236.66 59.2313 236.64 59.2533 236.626C59.3356 236.581 61.2524 235.48 62.1734 235.735C62.2588 235.754 62.3393 235.791 62.4101 235.842C62.4809 235.894 62.5405 235.959 62.5852 236.034C62.6438 236.118 62.6753 236.217 62.6753 236.319C62.6753 236.421 62.6438 236.52 62.5852 236.603C62.368 236.94 61.6867 237.038 60.9829 237.038ZM59.7175 236.686C60.7358 236.836 62.1284 236.828 62.383 236.469C62.4204 236.424 62.4504 236.341 62.383 236.184C62.3258 236.091 62.2345 236.024 62.1284 235.997C61.5444 235.847 60.3839 236.341 59.7175 236.686Z" fill="#F75C03"/>
<path id="Vector_20" d="M59.3206 236.888C59.2962 236.895 59.2702 236.895 59.2458 236.888C59.225 236.875 59.2088 236.855 59.1995 236.833C59.1901 236.81 59.1879 236.785 59.1934 236.761C59.2441 235.981 59.5432 235.239 60.0469 234.642C60.1488 234.554 60.2684 234.489 60.3976 234.452C60.5268 234.414 60.6626 234.405 60.7957 234.425C61.1551 234.425 61.2599 234.642 61.2823 234.784C61.3797 235.406 60.0694 236.596 59.403 236.896L59.3206 236.888ZM60.6609 234.642C60.4962 234.641 60.3365 234.699 60.2116 234.807C59.7883 235.279 59.5261 235.875 59.4629 236.506C60.1368 236.094 61.0353 235.166 60.9604 234.792C60.9604 234.792 60.9604 234.664 60.7058 234.642H60.6609Z" fill="#F75C03"/>
<path id="Vector_21" d="M53.2708 236.753H58.774L59.3206 224.017H53.8173L53.2708 236.753Z" fill="#E4897B"/>
<path id="Vector_22" d="M4.26587 214.89L8.86313 217.9L19.016 209.327L14.4113 206.309L4.26587 214.89Z" fill="#E4897B"/>
<path id="Vector_23" d="M9.61936 217.615L4.84241 213.699C4.75801 213.63 4.65215 213.592 4.54291 213.592C4.43367 213.592 4.32781 213.63 4.24341 213.699L0.305044 216.792C0.209896 216.867 0.133057 216.964 0.0802425 217.073C0.027428 217.183 0 217.303 0 217.424C0 217.546 0.027428 217.666 0.0802425 217.775C0.133057 217.885 0.209896 217.981 0.305044 218.057C1.99719 219.397 2.8882 219.966 4.99215 221.688C6.28747 222.744 9.48459 225.979 11.289 227.439C13.0935 228.899 14.7482 227.326 14.1492 226.57C11.4613 223.163 10.4055 220.251 10.0986 218.446C10.0455 218.12 9.87509 217.825 9.61936 217.615Z" fill="#263238"/>
<path id="Vector_24" d="M58.7367 236.117H52.7468C52.6375 236.117 52.5316 236.154 52.446 236.222C52.3605 236.29 52.3003 236.385 52.2751 236.491L51.1894 241.38C51.1621 241.499 51.1621 241.622 51.1895 241.74C51.2169 241.859 51.2708 241.97 51.3473 242.064C51.4238 242.159 51.5208 242.234 51.6309 242.286C51.7411 242.337 51.8615 242.363 51.983 242.361C54.1469 242.324 57.2766 242.196 60.002 242.196C63.1842 242.196 65.9396 242.369 69.6683 242.369C71.9145 242.369 72.5584 240.085 71.6075 239.883C67.3097 238.939 63.7907 238.842 60.0769 236.543C59.6784 236.28 59.2144 236.132 58.7367 236.117Z" fill="#263238"/>
<path id="Vector_25" d="M25.9942 66.7968C21.2248 69.043 18.5068 84.0927 18.5068 84.0927L30.1647 88.7424C31.8711 84.5756 33.2505 80.2824 34.2903 75.9015C35.8926 68.9682 30.876 64.4757 25.9942 66.7968Z" fill="#263238"/>
<path id="Vector_26" d="M32.1788 75.2801C29.2962 78.2002 27.9784 83.9205 27.4019 87.6418L30.1947 88.7574C31.8526 84.709 33.2041 80.5417 34.2378 76.2909C33.9908 74.7036 33.3768 74.0671 32.1788 75.2801Z" fill="#203048"/>
<path id="Vector_27" d="M57.8009 66.6917C57.8009 66.6917 63.656 73.3106 58.1303 114.237H28.7123C28.5102 109.744 31.3479 87.6939 26.9902 66.4147C30.2413 65.7843 33.5304 65.3691 36.8362 65.1718C41.0005 64.9245 45.1758 64.9245 49.3401 65.1718C52.1954 65.4591 55.0241 65.9673 57.8009 66.6917Z" fill="#263238"/>
<path id="Vector_28" d="M60.4888 82.5802L55.5322 74.0371C54.5753 78.0232 54.1846 82.1241 54.3716 86.2191C54.5064 89.1542 57.1944 100.026 59.6128 101.613C60.2545 95.2898 60.547 88.9358 60.4888 82.5802Z" fill="#203048"/>
<path id="Vector_29" d="M61.1777 72.5396C61.9264 76.1784 62.6752 79.9071 63.4763 83.561C64.2775 87.2148 65.1086 90.8837 66.0745 94.4252C66.3215 95.3012 66.5537 96.1997 66.8232 97.0383L67.0254 97.6822L67.1227 98.0042V97.9667C67.0703 97.8994 67.0104 97.8919 67.0553 97.9667C67.363 98.3028 67.7565 98.5487 68.1934 98.678C68.9012 98.9414 69.6301 99.1443 70.3722 99.2845C73.9122 99.8456 77.4964 100.079 81.0792 99.9809L81.7905 104.054C80.7872 104.376 79.8513 104.608 78.8629 104.84C77.8746 105.072 76.9012 105.267 75.9054 105.417C73.8451 105.76 71.7561 105.9 69.6684 105.836C68.508 105.805 67.3538 105.654 66.2242 105.387C64.7879 105.073 63.4382 104.446 62.2709 103.552C61.5085 102.937 60.8792 102.173 60.4215 101.306C60.3017 101.081 60.1969 100.827 60.0995 100.61L59.9647 100.258L59.6877 99.5091C59.3059 98.5583 58.9914 97.6223 58.647 96.6864C57.3816 92.9427 56.3259 89.1616 55.3974 85.3879C54.469 81.6143 53.6678 77.8481 53.0015 73.9771L61.1777 72.5396Z" fill="#E4897B"/>
<path id="Vector_30" d="M50.4557 70.7051C48.9058 75.7291 55.1877 90.7114 55.1877 90.7114L67.6991 87.5667C67.6991 87.5667 67.2199 79.7798 64.3673 73.6027C60.0695 64.2884 52.3125 64.6778 50.4557 70.7051Z" fill="#263238"/>
<path id="Vector_31" d="M80.9742 99.9807L87.2038 99.8235L84.2088 106.308C84.2088 106.308 81.6706 106.644 79.5891 103.223L77.3953 100.602L79.9185 100.101C80.2659 100.027 80.6193 99.9873 80.9742 99.9807Z" fill="#E4897B"/>
<path id="Vector_32" d="M91.1346 101.029L87.5706 106.405L84.2087 106.308L87.2037 99.8235L91.1346 101.029Z" fill="#E4897B"/>
<path id="Vector_33" d="M59.3207 224.017L59.0362 230.584H53.533L53.8175 224.017H59.3207Z" fill="#CE6F64"/>
<path id="Vector_34" d="M14.4114 206.309L19.0162 209.327L13.775 213.744L9.17773 210.734L14.4114 206.309Z" fill="#CE6F64"/>
<path id="Vector_35" d="M38.4234 46.7904C38.7529 52.2337 38.6705 55.4458 41.4184 58.2386C45.5514 62.454 52.2826 59.9607 53.5854 54.4949C54.7609 49.5981 54.0272 41.5117 48.6961 39.3404C47.5198 38.8656 46.2422 38.6975 44.9831 38.8517C43.7241 39.006 42.5248 39.4776 41.4979 40.2223C40.471 40.967 39.6502 41.9604 39.1124 43.1093C38.5746 44.2581 38.3376 45.5248 38.4234 46.7904Z" fill="#E4897B"/>
<path id="Vector_36" d="M32.0142 45.8319C33.3694 50.7961 36.559 56.5165 40.6846 56.8833C45.806 57.3326 48.1196 52.039 48.7934 46.5732C51.8633 44.4692 50.2535 42.1556 53.3308 41.8636C57.2841 41.4893 56.0188 34.2564 50.815 33.0959C50.815 33.0959 52.5596 36.3529 48.8983 34.7057C45.4163 33.0509 41.5479 32.3803 37.7121 32.7664C37.7121 32.7664 42.3842 35.1025 37.8169 36.1433C33.2496 37.184 31.8869 39.9993 33.9909 41.6989C33.9909 41.7064 31.1232 42.5674 32.0142 45.8319Z" fill="#263238"/>
<path id="Vector_37" d="M45.6712 47.6966C45.7718 49.0496 46.3167 50.3315 47.2211 51.3429C48.4191 52.6682 49.6695 51.8446 49.8791 50.2348C50.0738 48.7897 49.677 46.3563 48.2094 45.6225C46.7419 44.8888 45.5739 46.0643 45.6712 47.6966Z" fill="#E4897B"/>
<path id="Vector_38" d="M47.6929 114.237C47.6929 114.237 53.0539 153.059 48.831 168.618C42.1372 193.251 16.5453 214.044 16.5453 214.044L7.86743 208.353C7.86743 208.353 29.6632 190.795 32.3287 170.168C34.7247 151.651 28.7123 129.256 28.7123 114.229L47.6929 114.237Z" fill="#F75C03"/>
<path id="Vector_39" opacity="0.1" d="M47.6929 114.237C47.6929 114.237 53.0539 153.059 48.831 168.618C42.1372 193.251 16.5453 214.044 16.5453 214.044L7.86743 208.353C7.86743 208.353 29.6632 190.795 32.3287 170.168C34.7247 151.651 28.7123 129.256 28.7123 114.229L47.6929 114.237Z" fill="black"/>
<path id="Vector_40" d="M49.909 136.43C48.4818 134.795 46.9106 133.291 45.2144 131.938C46.1278 144.539 46.8766 163.205 46.0455 176.465C47.1629 173.923 48.0938 171.303 48.8308 168.626C50.8898 161.026 50.6727 147.901 49.909 136.43Z" fill="#F75C03"/>
<path id="Vector_41" opacity="0.3" d="M49.909 136.43C48.4818 134.795 46.9106 133.291 45.2144 131.938C46.1278 144.539 46.8766 163.205 46.0455 176.465C47.1629 173.923 48.0938 171.303 48.8308 168.626C50.8898 161.026 50.6727 147.901 49.909 136.43Z" fill="black"/>
<path id="Vector_42" d="M20.0418 212.105C20.0792 212.105 16.68 214.351 16.68 214.351L7.20093 208.137L10.1959 205.658L20.0418 212.105Z" fill="#F75C03"/>
<path id="Vector_43" opacity="0.3" d="M20.0418 212.105C20.0792 212.105 16.68 214.351 16.68 214.351L7.20093 208.137L10.1959 205.658L20.0418 212.105Z" fill="black"/>
<path id="Vector_44" d="M58.1302 114.237C58.1302 114.237 66.4113 149.353 66.9953 166.132C67.6542 184.941 61.0877 229.311 61.0877 229.311H51.7659C51.7659 229.311 50.6204 184.596 50.2086 167.465C49.7518 148.784 38.7903 114.237 38.7903 114.237H58.1302Z" fill="#F75C03"/>
<path id="Vector_45" opacity="0.1" d="M58.1302 114.237C58.1302 114.237 66.4113 149.353 66.9953 166.132C67.6542 184.941 61.0877 229.311 61.0877 229.311H51.7659C51.7659 229.311 50.6204 184.596 50.2086 167.465C49.7518 148.784 38.7903 114.237 38.7903 114.237H58.1302Z" fill="black"/>
<path id="Vector_46" d="M62.8772 225.604C62.9221 225.604 62.3531 229.468 62.3531 229.468H51.0172L50.7102 226.016L62.8772 225.604Z" fill="#F75C03"/>
<path id="Vector_47" opacity="0.3" d="M62.8772 225.604C62.9221 225.604 62.3531 229.468 62.3531 229.468H51.0172L50.7102 226.016L62.8772 225.604Z" fill="black"/>
</g>
<g id="freepik--character--inject-10">
<path id="Vector_48" d="M214.82 80.4912C215.457 81.0902 215.958 81.5993 216.482 82.1684C217.006 82.7374 217.501 83.2915 217.98 83.868C218.953 85.0136 219.867 86.2191 220.75 87.432C222.515 89.8652 224.084 92.4339 225.445 95.1141L225.722 95.6607C225.857 95.9252 225.97 96.2008 226.059 96.4843C226.24 97.0322 226.35 97.6007 226.388 98.1764C226.437 99.1916 226.297 100.207 225.976 101.171C225.429 102.773 224.617 104.272 223.573 105.604C221.691 108.02 219.472 110.153 216.984 111.938L215.12 109.797C215.996 108.771 216.909 107.67 217.725 106.57C218.556 105.503 219.306 104.377 219.971 103.2C220.593 102.174 221.052 101.058 221.334 99.8911C221.431 99.4738 221.449 99.042 221.387 98.6182C221.36 98.4756 221.314 98.3372 221.252 98.2064C221.224 98.149 221.191 98.0939 221.154 98.0417L220.915 97.6374C219.471 95.2828 217.904 93.006 216.22 90.8163C215.389 89.7157 214.498 88.66 213.6 87.6192C213.158 87.0951 212.701 86.586 212.244 86.0768C211.788 85.5677 211.294 85.0585 210.897 84.6617L214.82 80.4912Z" fill="#E4897B"/>
<path id="Vector_49" d="M215.838 109.168L210.245 108.254L213.173 113.151C213.173 113.151 216.774 113.024 217.8 110.905L215.838 109.168Z" fill="#E4897B"/>
<path id="Vector_50" d="M206.112 110.515L208.778 114.491L213.173 113.151L210.245 108.254L206.112 110.515Z" fill="#E4897B"/>
<path id="Vector_51" d="M215.569 236.97C215.189 237.003 214.809 236.9 214.498 236.678C214.404 236.59 214.335 236.478 214.297 236.355C214.259 236.232 214.253 236.101 214.281 235.975C214.286 235.894 214.314 235.817 214.36 235.751C214.406 235.685 214.469 235.633 214.543 235.6C215.194 235.308 216.902 236.401 217.096 236.529C217.118 236.542 217.136 236.563 217.145 236.587C217.154 236.612 217.156 236.638 217.149 236.663C217.146 236.689 217.135 236.713 217.117 236.732C217.1 236.751 217.077 236.764 217.051 236.768C216.566 236.891 216.069 236.959 215.569 236.97ZM214.82 235.81C214.765 235.801 214.71 235.801 214.655 235.81C214.622 235.825 214.594 235.849 214.575 235.88C214.555 235.91 214.544 235.946 214.543 235.982C214.523 236.066 214.525 236.153 214.549 236.235C214.572 236.318 214.617 236.393 214.678 236.454C214.962 236.708 215.696 236.746 216.677 236.551C216.115 236.18 215.483 235.928 214.82 235.81Z" fill="#F75C03"/>
<path id="Vector_52" d="M217.066 236.761H216.999C216.467 236.454 215.442 235.263 215.569 234.612C215.593 234.509 215.65 234.417 215.731 234.35C215.812 234.282 215.913 234.243 216.018 234.237C216.119 234.223 216.222 234.231 216.32 234.263C216.417 234.294 216.506 234.346 216.58 234.417C217.194 234.956 217.201 236.573 217.201 236.663C217.2 236.686 217.193 236.708 217.181 236.728C217.169 236.747 217.153 236.764 217.134 236.776L217.066 236.761ZM216.108 234.514H216.048C215.883 234.514 215.846 234.604 215.831 234.672C215.756 235.053 216.393 235.967 216.924 236.394C216.937 235.766 216.757 235.149 216.408 234.627C216.363 234.585 216.309 234.553 216.251 234.534C216.193 234.514 216.132 234.508 216.071 234.514H216.108Z" fill="#F75C03"/>
<path id="Vector_53" d="M190.052 236.97C189.574 237.016 189.095 236.894 188.697 236.626C188.607 236.546 188.538 236.446 188.495 236.334C188.452 236.222 188.436 236.101 188.45 235.982C188.454 235.909 188.478 235.838 188.517 235.777C188.556 235.715 188.61 235.665 188.674 235.63C189.37 235.24 191.602 236.379 191.856 236.521C191.88 236.536 191.898 236.557 191.91 236.582C191.922 236.607 191.927 236.635 191.924 236.663C191.919 236.689 191.907 236.714 191.888 236.732C191.869 236.751 191.845 236.764 191.819 236.768C191.238 236.891 190.646 236.959 190.052 236.97ZM189.056 235.81C188.97 235.804 188.885 235.822 188.809 235.862C188.782 235.875 188.759 235.895 188.743 235.92C188.727 235.945 188.719 235.974 188.719 236.004C188.708 236.082 188.715 236.162 188.741 236.236C188.767 236.31 188.811 236.377 188.869 236.431C189.213 236.738 190.134 236.79 191.377 236.581C190.652 236.195 189.868 235.934 189.056 235.81Z" fill="#F75C03"/>
<path id="Vector_54" d="M191.796 236.761H191.736C191.07 236.461 189.745 235.263 189.85 234.612C189.85 234.462 189.984 234.275 190.351 234.237C190.485 234.223 190.621 234.236 190.75 234.276C190.878 234.316 190.998 234.382 191.1 234.469C191.804 235.053 191.939 236.566 191.939 236.633C191.942 236.656 191.938 236.679 191.929 236.7C191.92 236.722 191.905 236.74 191.886 236.753C191.858 236.765 191.826 236.768 191.796 236.761ZM190.456 234.514H190.374C190.134 234.514 190.119 234.634 190.112 234.664C190.052 235.046 190.95 235.997 191.609 236.409C191.544 235.769 191.283 235.164 190.86 234.679C190.747 234.582 190.605 234.525 190.456 234.514Z" fill="#F75C03"/>
<path id="Vector_55" d="M200.647 63.2776C200.429 66.6619 199.845 73.5353 202.443 75.4371C202.443 75.4371 201.972 78.9038 195.84 79.7124C189.101 80.5884 192.178 76.7848 192.178 76.7848C195.75 75.4221 195.293 72.7042 194.32 70.2184L200.647 63.2776Z" fill="#E4897B"/>
<path id="Vector_56" d="M186.697 57.2954C186.66 57.2955 186.624 57.2875 186.59 57.2719C186.557 57.2564 186.527 57.2338 186.503 57.2055C186.289 56.9516 186.018 56.7515 185.712 56.6214C185.407 56.4913 185.075 56.4349 184.743 56.4568C184.708 56.4632 184.672 56.4624 184.638 56.4544C184.603 56.4464 184.57 56.4315 184.541 56.4105C184.513 56.3895 184.489 56.3628 184.47 56.3321C184.452 56.3015 184.441 56.2675 184.436 56.2322C184.428 56.1618 184.447 56.0908 184.491 56.0348C184.534 55.9787 184.598 55.942 184.668 55.9327C185.091 55.8969 185.516 55.9641 185.907 56.1284C186.299 56.2927 186.644 56.5492 186.915 56.8761C186.947 56.9151 186.968 56.9625 186.974 57.0129C186.981 57.0632 186.973 57.1144 186.952 57.1605C186.931 57.2067 186.898 57.2459 186.855 57.2738C186.813 57.3016 186.763 57.3169 186.712 57.3178L186.697 57.2954Z" fill="#263238"/>
<path id="Vector_57" d="M185.53 60.6123C185.264 61.6862 184.853 62.719 184.309 63.6821C184.559 63.8167 184.836 63.8944 185.119 63.91C185.402 63.9255 185.686 63.8784 185.949 63.772L185.53 60.6123Z" fill="#DE5753"/>
<path id="Vector_58" d="M185.829 59.7886C185.889 60.2378 185.702 60.6272 185.41 60.6721C185.118 60.717 184.826 60.3726 184.773 59.9234C184.721 59.4741 184.901 59.0848 185.193 59.0473C185.485 59.0099 185.777 59.3094 185.829 59.7886Z" fill="#263238"/>
<path id="Vector_59" d="M185.327 59.0548L184.212 58.8826C184.212 58.8826 184.871 59.6538 185.327 59.0548Z" fill="#263238"/>
<path id="Vector_60" d="M197.966 236.641H192.35L191.976 223.65H197.592L197.966 236.641Z" fill="#E4897B"/>
<path id="Vector_61" d="M223.461 236.641H217.845L216.041 223.65H221.656L223.461 236.641Z" fill="#E4897B"/>
<path id="Vector_62" d="M217.501 236.012H223.805C223.913 236.011 224.017 236.049 224.098 236.119C224.179 236.19 224.232 236.287 224.247 236.394L224.996 241.388C225.009 241.514 224.996 241.641 224.957 241.761C224.918 241.882 224.854 241.993 224.769 242.087C224.685 242.181 224.581 242.256 224.465 242.307C224.349 242.358 224.224 242.384 224.097 242.384C221.903 242.346 220.84 242.219 218.07 242.219C216.363 242.219 213.869 242.391 211.518 242.391C209.167 242.391 209.04 240.062 210.021 239.853C214.416 238.909 215.112 237.607 216.587 236.356C216.845 236.143 217.166 236.021 217.501 236.012Z" fill="#263238"/>
<path id="Vector_63" d="M192.163 236.012H198.46C198.568 236.011 198.674 236.048 198.756 236.119C198.839 236.189 198.893 236.286 198.909 236.394L199.658 241.388C199.672 241.514 199.659 241.641 199.62 241.761C199.581 241.882 199.517 241.993 199.432 242.087C199.347 242.181 199.243 242.256 199.128 242.307C199.012 242.358 198.886 242.384 198.76 242.384C196.566 242.346 195.503 242.219 192.732 242.219C191.025 242.219 187.491 242.391 185.14 242.391C182.789 242.391 182.662 240.062 183.643 239.853C188.038 238.909 189.767 237.607 191.25 236.356C191.507 236.143 191.829 236.021 192.163 236.012Z" fill="#263238"/>
<path id="Vector_64" d="M191.976 223.65L192.171 230.352H197.786L197.592 223.65H191.976Z" fill="#CE6F64"/>
<path id="Vector_65" d="M221.656 223.65H216.041L216.976 230.352H222.585L221.656 223.65Z" fill="#CE6F64"/>
<path id="Vector_66" d="M200.721 56.2694C201.103 61.825 201.38 64.1686 198.969 67.3657C195.338 72.1651 188.434 71.4239 186.398 66.0928C184.563 61.2934 184.249 53.0198 189.355 50.1147C190.479 49.4709 191.748 49.1248 193.043 49.1092C194.337 49.0936 195.614 49.409 196.753 50.0255C197.892 50.6421 198.854 51.5392 199.548 52.632C200.243 53.7247 200.646 54.9768 200.721 56.2694Z" fill="#E4897B"/>
<path id="Vector_67" d="M203.956 61.4283C207.071 63.1654 209.384 58.8826 209.384 58.8826C209.384 58.8826 203.799 59.4891 204.3 56.1647C204.959 51.7546 201.8 46.3936 193.878 47.0825C193.436 47.1199 193.017 47.1723 192.605 47.2397C191.776 46.8466 190.838 46.7451 189.944 46.9517C189.05 47.1583 188.251 47.6608 187.678 48.3778C185.432 48.565 182.4 51.2454 184.459 54.787C184.603 54.3801 184.827 54.0059 185.118 53.6863C185.29 55.7603 187.102 59.0548 189.363 59.2719C189.85 62.1097 187.963 65.3966 188.614 68.3616C189.58 72.6369 196.791 73.6028 196.791 73.6028C196.542 73.0689 196.449 72.4756 196.524 71.8913C196.598 71.307 196.836 70.7557 197.21 70.3009C202.107 72.5471 205.334 70.3533 205.334 70.3533C201.994 69.1104 203.005 66.8941 203.005 66.8941C204.158 67.4061 205.465 67.451 206.65 67.0196C207.836 66.5881 208.808 65.7138 209.362 64.5805C208.253 64.6332 207.152 64.3635 206.193 63.8041C205.233 63.2448 204.456 62.4196 203.956 61.4283Z" fill="#263238"/>
<path id="Vector_68" d="M191.317 60.1254C191.33 60.6586 191.238 61.1891 191.045 61.6864C190.852 62.1837 190.563 62.638 190.194 63.023C189.206 64.0488 187.993 63.33 187.663 62.0197C187.371 60.8367 187.536 58.8825 188.824 58.3434C189.107 58.232 189.414 58.1932 189.716 58.2306C190.019 58.268 190.307 58.3803 190.554 58.5574C190.802 58.7345 191.002 58.9707 191.135 59.2445C191.268 59.5184 191.331 59.8212 191.317 60.1254Z" fill="#E4897B"/>
<path id="Vector_69" d="M195.982 111.886C195.982 111.886 197.404 148.844 200.789 170.542C203.514 188.077 215.621 229.049 215.621 229.049H223.273C223.273 229.049 216.961 189.478 215.576 172.144C212.072 128.276 221.169 118.857 212.581 109.722L195.982 111.886Z" fill="#263238"/>
<path id="Vector_70" d="M202.376 123.574C202.376 123.574 198.917 122.975 196.895 129.564C197.644 142.045 198.924 158.607 200.789 170.542C201.201 173.2 201.829 176.405 202.601 179.916C201.141 158.832 202.376 123.574 202.376 123.574Z" fill="#161F33"/>
<path id="Vector_71" d="M190.014 112.665C190.014 112.665 183.71 153.553 184.077 170.662C184.459 188.46 190.98 229.064 190.98 229.064H198.565C198.565 229.064 197.367 189.515 198.033 172.04C198.782 152.984 206.562 110.516 206.562 110.516L190.014 112.665Z" fill="#263238"/>
<path id="Vector_72" d="M224.381 229.408H214.206L213.412 225.994L224.307 226.069L224.381 229.408Z" fill="#F75C03"/>
<path id="Vector_73" opacity="0.2" d="M224.381 229.408H214.206L213.412 225.994L224.307 226.069L224.381 229.408Z" fill="black"/>
<path id="Vector_74" d="M212.199 75.4444C215.127 75.7289 219.575 84.0474 219.575 84.0474L212.184 89.7154C212.184 89.7154 206.067 84.3469 206.794 81.3295C207.55 78.1923 209.392 75.1824 212.199 75.4444Z" fill="#F75C03"/>
<path id="Vector_75" opacity="0.1" d="M212.199 75.4444C215.127 75.7289 219.575 84.0474 219.575 84.0474L212.184 89.7154C212.184 89.7154 206.067 84.3469 206.794 81.3295C207.55 78.1923 209.392 75.1824 212.199 75.4444Z" fill="black"/>
<path id="Vector_76" d="M209.991 79.0237C209.244 78.8226 208.472 78.7367 207.7 78.7691C207.307 79.5877 207.003 80.4462 206.794 81.3298C206.045 84.3248 212.184 89.7157 212.184 89.7157L212.731 89.2964L209.991 79.0237Z" fill="#F75C03"/>
<path id="Vector_77" opacity="0.3" d="M209.991 79.0237C209.244 78.8226 208.472 78.7367 207.7 78.7691C207.307 79.5877 207.003 80.4462 206.794 81.3298C206.045 84.3248 212.184 89.7157 212.184 89.7157L212.731 89.2964L209.991 79.0237Z" fill="black"/>
<path id="Vector_78" d="M187.506 87.0128C185.372 92.4112 183.126 97.8995 181.336 103.313C181.217 103.657 181.119 103.987 181.015 104.324L180.76 105.155C180.69 105.4 180.69 105.659 180.76 105.904C181.183 106.84 181.853 107.642 182.699 108.225C184.938 109.831 187.377 111.137 189.954 112.111L189.281 114.866C186.11 114.448 183.043 113.448 180.236 111.916C178.508 110.993 177.101 109.567 176.2 107.828C175.683 106.716 175.503 105.477 175.684 104.264C175.701 104.115 175.726 103.968 175.758 103.822L175.833 103.508L175.961 102.939C176.05 102.557 176.14 102.19 176.238 101.815C176.986 98.8204 177.945 95.9752 178.955 93.1525C179.966 90.3297 181.022 87.5444 182.213 84.7666L187.506 87.0128Z" fill="#E4897B"/>
<path id="Vector_79" d="M182.961 79.4353C182.961 79.4353 180.43 80.7157 190.014 112.664L212.611 109.714C211.024 100.565 210.275 94.8968 212.199 75.4445C208.959 75.2125 205.706 75.2125 202.466 75.4445C199.016 75.6452 195.585 76.0956 192.201 76.7923C187.865 77.7582 182.961 79.4353 182.961 79.4353Z" fill="#F75C03"/>
<path id="Vector_80" opacity="0.1" d="M182.961 79.4353C182.961 79.4353 180.43 80.7157 190.014 112.664L212.611 109.714C211.024 100.565 210.275 94.8968 212.199 75.4445C208.959 75.2125 205.706 75.2125 202.466 75.4445C199.016 75.6452 195.585 76.0956 192.201 76.7923C187.865 77.7582 182.961 79.4353 182.961 79.4353Z" fill="black"/>
<path id="Vector_81" d="M212.776 108.344L214.071 110.223C214.169 110.373 214.004 110.553 213.749 110.59L190.052 113.69C189.85 113.69 189.662 113.638 189.632 113.51L189.168 111.511C189.131 111.376 189.295 111.234 189.52 111.204L212.402 108.209C212.47 108.198 212.541 108.205 212.606 108.228C212.672 108.252 212.73 108.292 212.776 108.344Z" fill="#F75C03"/>
<path id="Vector_82" opacity="0.2" d="M212.776 108.344L214.071 110.223C214.169 110.373 214.004 110.553 213.749 110.59L190.052 113.69C189.85 113.69 189.662 113.638 189.632 113.51L189.168 111.511C189.131 111.376 189.295 111.234 189.52 111.204L212.402 108.209C212.47 108.198 212.541 108.205 212.606 108.228C212.672 108.252 212.73 108.292 212.776 108.344Z" fill="black"/>
<path id="Vector_83" d="M210.036 111.302L210.65 111.219C210.769 111.219 210.852 111.13 210.837 111.055L210.208 108.464C210.184 108.42 210.146 108.385 210.099 108.366C210.053 108.347 210.001 108.345 209.953 108.359L209.339 108.434C209.212 108.434 209.13 108.524 209.152 108.606L209.781 111.19C209.796 111.272 209.916 111.317 210.036 111.302Z" fill="#263238"/>
<path id="Vector_84" d="M195.181 113.218L195.795 113.136C195.914 113.136 196.004 113.046 195.982 112.971L195.353 110.381C195.328 110.337 195.29 110.302 195.244 110.282C195.198 110.262 195.147 110.257 195.098 110.268L194.484 110.351C194.365 110.351 194.275 110.441 194.297 110.516L194.926 113.106C194.941 113.218 195.061 113.263 195.181 113.218Z" fill="#263238"/>
<path id="Vector_85" d="M184.017 90.2774C184.638 93.1675 185.514 96.8288 186.795 101.464L187.072 89.7158L184.017 90.2774Z" fill="#F75C03"/>
<path id="Vector_86" opacity="0.3" d="M184.017 90.2774C184.638 93.1675 185.514 96.8288 186.795 101.464L187.072 89.7158L184.017 90.2774Z" fill="black"/>
<path id="Vector_87" d="M182.961 79.4357C180.153 80.5663 177.72 90.1726 177.72 90.1726L187.379 94.8747C187.379 94.8747 192.043 83.1269 189.954 80.8358C187.865 78.5447 186.196 78.1403 182.961 79.4357Z" fill="#F75C03"/>
<path id="Vector_88" opacity="0.1" d="M182.961 79.4357C180.153 80.5663 177.72 90.1726 177.72 90.1726L187.379 94.8747C187.379 94.8747 192.043 83.1269 189.954 80.8358C187.865 78.5447 186.196 78.1403 182.961 79.4357Z" fill="black"/>
<path id="Vector_89" d="M199.86 229.408H189.685L188.891 225.994L200.22 226.069L199.86 229.408Z" fill="#F75C03"/>
<path id="Vector_90" opacity="0.2" d="M199.86 229.408H189.685L188.891 225.994L200.22 226.069L199.86 229.408Z" fill="black"/>
<path id="Vector_91" d="M190.112 111.182L189.295 110.845C189.095 110.764 188.876 110.737 188.662 110.767C188.447 110.797 188.245 110.883 188.074 111.017C187.904 111.151 187.772 111.328 187.692 111.529C187.612 111.73 187.586 111.949 187.618 112.163L188.21 116.064C188.238 116.259 188.31 116.446 188.419 116.61C188.528 116.774 188.672 116.912 188.842 117.014C189.011 117.116 189.2 117.179 189.396 117.198C189.593 117.218 189.791 117.194 189.977 117.127C190.274 117.019 190.552 116.865 190.8 116.671C191.071 116.446 191.285 116.161 191.426 115.838C191.566 115.516 191.629 115.165 191.609 114.814L191.527 113.196C191.512 112.759 191.371 112.336 191.12 111.978C190.868 111.62 190.518 111.344 190.112 111.182Z" fill="#E4897B"/>
</g>
</g>
</svg>
