<svg width="24" height="24" viewBox="0 0 24 24" fill="none" xmlns="http://www.w3.org/2000/svg">
<g id="kcal 1">
<g id="Group">
<path id="Vector" d="M11.1469 0.0468769C10.9266 0.112501 10.7344 0.281252 10.35 0.745314C8.64376 2.80781 7.6547 5.27813 7.51407 7.82344C7.48595 8.41875 7.45313 8.50313 7.26095 8.475C7.19532 8.46563 7.10157 8.3625 6.9797 8.15625C6.88126 7.9875 6.75938 7.77656 6.70313 7.6875C6.53907 7.41094 6.31876 7.29375 5.93438 7.275C5.65782 7.26563 5.56876 7.27969 5.41407 7.36875C5.19376 7.5 4.88907 7.86094 4.44845 8.52656C2.58282 11.3344 2.13282 14.8641 3.23907 17.9719C4.26563 20.8547 6.57188 22.9453 9.55782 23.6906C10.4203 23.9109 10.9734 23.9719 11.9766 23.9766C13.0078 23.9766 13.5141 23.9203 14.3438 23.7188C18.1031 22.7953 20.6578 19.9359 21.2625 15.9609C21.3609 15.3234 21.3703 13.8516 21.2859 13.2188C21.0469 11.4703 20.475 9.91406 19.5516 8.52656C18.8672 7.49531 18.6 7.26563 18.1031 7.26563C17.6766 7.26563 17.3719 7.48594 17.1328 7.96875C16.9453 8.34375 16.7063 8.625 16.5703 8.625C16.4297 8.625 16.3781 8.53125 16.3359 8.17969C16.2844 7.71563 16.0031 6.70313 15.8063 6.24375C15.4313 5.37656 15.0141 4.78594 14.3531 4.18125C13.4531 3.36563 13.1063 2.99063 12.9281 2.64844C12.7219 2.25 12.5766 1.75313 12.5391 1.29844C12.4922 0.745314 12.4266 0.562502 12.1922 0.328127C11.8969 0.0375023 11.5172 -0.0656242 11.1469 0.0468769ZM6.65626 12.5063C6.74532 12.6188 6.75001 12.6984 6.75001 14.2828V15.9375L6.88126 15.9094C7.30782 15.8016 7.65938 15.5484 7.86095 15.1922C8.05782 14.85 8.15157 14.7656 8.34376 14.7656C8.52657 14.7656 8.68126 14.8875 8.7422 15.0844C8.78907 15.2484 8.56876 15.6609 8.25001 15.9984L7.97813 16.2891L8.16563 16.5469C8.42345 16.9031 8.55938 17.1844 8.67188 17.5922C8.80782 18.0938 8.7047 18.3234 8.33907 18.3281C8.11407 18.3281 8.00626 18.1969 7.90313 17.8078C7.80938 17.4469 7.62657 17.1188 7.37813 16.8422L7.19532 16.6406L6.97501 16.6922L6.75001 16.7438V17.4188C6.75001 18.0797 6.74532 18.1031 6.63282 18.2109C6.47813 18.3703 6.22501 18.3703 6.07032 18.2109L5.95313 18.0984V15.3609C5.95313 12.6844 5.95313 12.6188 6.04688 12.5016C6.20157 12.3047 6.50157 12.3047 6.65626 12.5063ZM17.25 12.5063C17.3391 12.6188 17.3438 12.7031 17.3438 14.7563C17.3438 16.8234 17.3484 16.8984 17.4422 17.0953C17.5641 17.3484 17.7375 17.4703 18.0422 17.5313C18.3609 17.5922 18.4453 17.6391 18.5156 17.8125C18.5672 17.9391 18.5672 17.9859 18.5016 18.1172C18.4125 18.3047 18.2906 18.3469 17.9344 18.3188C17.4328 18.2766 16.9688 17.9438 16.725 17.4469L16.5703 17.1328L16.5563 14.8969C16.5469 13.3125 16.5609 12.6281 16.5938 12.5578C16.6594 12.4359 16.8938 12.3375 17.0438 12.3656C17.1047 12.375 17.1984 12.4406 17.25 12.5063ZM11.5688 14.9109C11.9203 15.0844 12.1406 15.3328 12.1406 15.5531C12.1406 15.8953 11.7094 16.0688 11.4797 15.8203C11.3156 15.6422 11.1375 15.5625 10.9172 15.5625C10.7531 15.5625 10.6922 15.5906 10.5422 15.7453L10.3594 15.9281V16.5234C10.3594 16.9922 10.3781 17.1469 10.4344 17.25C10.65 17.6109 11.1563 17.6297 11.4797 17.2781C11.6344 17.1141 11.8688 17.1141 12.0234 17.2734C12.2859 17.5313 12.0891 17.925 11.5688 18.1828C10.8797 18.5297 10.0641 18.2625 9.69376 17.5641C9.59532 17.3813 9.58595 17.3063 9.58595 16.5469C9.58595 15.6234 9.61876 15.5063 9.97032 15.1641C10.275 14.8688 10.5094 14.775 10.9734 14.7703C11.2313 14.7656 11.3297 14.7891 11.5688 14.9109ZM15.2156 14.9297C15.3563 15.0188 15.4969 15.1594 15.5859 15.3L15.7266 15.5297L15.7406 16.4297C15.75 16.9734 15.7359 17.4047 15.7078 17.5172C15.6281 17.8031 15.4078 18.075 15.1406 18.2109C14.9344 18.3188 14.8547 18.3281 14.3578 18.3281C13.9219 18.3281 13.7672 18.3094 13.6172 18.2391C12.9656 17.9391 12.75 17.1328 13.1719 16.5609C13.2469 16.4578 13.4203 16.3172 13.5516 16.2422C13.7766 16.1203 13.8516 16.1063 14.3766 16.0875L14.9531 16.0641V15.9188C14.9531 15.6188 14.8875 15.5906 14.2125 15.5625C13.6453 15.5391 13.5938 15.5297 13.4813 15.4266C13.3172 15.2719 13.3172 15.0375 13.4766 14.8781C13.5938 14.7609 13.6031 14.7609 14.2922 14.775C14.9672 14.7891 14.9906 14.7938 15.2156 14.9297Z" fill="#F75C03"/>
<path id="Vector_2" d="M13.8565 16.9922C13.7346 17.1187 13.7206 17.2547 13.8143 17.3859C13.9034 17.4984 13.9362 17.5078 14.3346 17.5218C14.8549 17.5359 14.9534 17.475 14.9534 17.1328V16.9218H14.4424C14.0487 16.9218 13.9128 16.9359 13.8565 16.9922Z" fill="#F75C03"/>
</g>
</g>
</svg>
