<svg width="12" height="11" viewBox="0 0 12 11" fill="none" xmlns="http://www.w3.org/2000/svg">
<path id="Vector" d="M5.14408 0.890795L5.14408 1.78154L4.83595 1.83292C4.14265 1.95283 3.32097 2.29971 2.60628 2.77077C2.20827 3.032 1.32668 3.91417 1.06562 4.31244C0.599144 5.01904 0.312411 5.69566 0.132668 6.50075C0.0470756 6.8776 0.0385164 7.07031 0.021398 8.59485L0 10.2778H0.85592H1.71612L1.73324 8.65908C1.74608 7.18593 1.75892 7.01464 1.84023 6.70202C2.16976 5.44299 2.97004 4.44948 4.10414 3.87992C4.37803 3.74288 4.7632 3.59728 5.02853 3.53732L5.14408 3.51163V6.03825L5.14408 8.56487H6L6.85592 8.56487L6.85592 6.03397C6.85592 3.64867 6.8602 3.50735 6.93295 3.52876C6.97147 3.5416 7.08702 3.57158 7.18545 3.59728C7.50642 3.67864 7.98145 3.90133 8.34522 4.13686C9.22682 4.7107 9.87732 5.63142 10.1598 6.70202C10.2411 7.01464 10.2539 7.18593 10.2668 8.65908L10.2839 10.2778H11.1441H12L11.9786 8.59485C11.9615 7.07031 11.9529 6.8776 11.8673 6.50075C11.5977 5.27598 11.1013 4.37667 10.2154 3.49022C9.48359 2.75792 8.82454 2.33825 7.9087 2.0342C7.66904 1.95283 7.33524 1.8629 7.16405 1.83292L6.85592 1.78154L6.85592 0.890795V5.43594e-05H6L5.14408 5.43594e-05V0.890795Z" fill="#0E6BA8"/>
</svg>
