<svg width="24" height="24" viewBox="0 0 24 24" fill="none" xmlns="http://www.w3.org/2000/svg">
<g id="wallet-_2_ 1" clip-path="url(#clip0_1_1201)">
<g id="Group">
<path id="Vector" d="M15.3984 0.060833C15.2719 0.0983334 15.0469 0.182709 14.9062 0.25771C14.7656 0.328022 12.2625 1.77646 9.34218 3.47333L4.04062 6.5624H2.94374C1.74374 6.5624 1.54687 6.59052 1.10155 6.84365C0.590617 7.13427 0.154679 7.75302 0.0468669 8.33896C-0.0140707 8.67646 -0.0187582 21.8108 0.0468669 22.1905C0.187492 23.0671 0.932804 23.8124 1.80937 23.953C1.9828 23.9811 5.67187 23.9999 11.4844 23.9999C21.8062 23.9999 21.2578 24.014 21.7781 23.714C22.2516 23.4468 22.5984 23.0202 22.8094 22.4718C22.8844 22.2655 22.8937 22.0358 22.9125 20.339L22.9312 18.4358L23.0906 18.3561C23.3531 18.2343 23.7047 17.8686 23.8453 17.5827L23.9766 17.3202V15.2811V13.2421L23.85 12.9749C23.7047 12.6608 23.3953 12.3327 23.1234 12.2061L22.9312 12.1171L22.9125 10.2186C22.8891 8.20302 22.8844 8.16552 22.6453 7.69208C22.5094 7.42958 22.0594 6.98896 21.7687 6.83427C21.6422 6.76396 21.3891 6.67021 21.2109 6.62333L20.8875 6.53896L19.3031 3.77333C17.7141 0.988958 17.4937 0.656147 17.0906 0.379583C16.6359 0.0655212 15.9047 -0.0704174 15.3984 0.060833ZM16.3359 1.1999C16.5234 1.28896 16.8422 1.59833 16.7953 1.64521C16.7719 1.66396 14.8687 2.7749 12.5578 4.12021L8.36249 6.5624H7.31249C6.67499 6.5624 6.28124 6.54365 6.30937 6.52021C6.4078 6.42177 15.4031 1.21396 15.5812 1.14833C15.8016 1.06865 16.1016 1.0874 16.3359 1.1999ZM17.6391 3.06083L17.9016 3.51552L17.7984 3.58115C17.7422 3.61865 16.5656 4.30302 15.1875 5.10458L12.6844 6.5624H11.6297C11.0531 6.5624 10.5937 6.54833 10.6125 6.52958C10.6547 6.4874 17.3625 2.57802 17.3719 2.59208C17.3766 2.59677 17.4937 2.80771 17.6391 3.06083ZM19.0266 5.48896C19.3406 6.03271 19.5937 6.49677 19.5937 6.52021C19.5937 6.54365 18.5812 6.5624 17.2406 6.5624C15.9469 6.5624 14.9016 6.54833 14.9203 6.53427C14.9672 6.48271 18.3891 4.4999 18.4266 4.4999C18.4453 4.4999 18.7172 4.94521 19.0266 5.48896ZM21.0516 7.69677C21.2953 7.76708 21.6 8.03896 21.7078 8.26865C21.7875 8.44677 21.7969 8.61083 21.7969 10.228V11.9999H20.0531C19.0641 11.9999 18.1734 12.0233 18.0047 12.0515C16.8281 12.239 15.8062 13.1296 15.4359 14.2827C14.8828 16.0218 15.8719 17.8733 17.6484 18.4171C18.0141 18.5296 18.0703 18.5296 19.9125 18.553L21.7969 18.5718V20.339C21.7969 22.1015 21.7969 22.1108 21.6891 22.3171C21.5437 22.589 21.2531 22.8093 20.9437 22.8702C20.7656 22.9077 17.9484 22.9218 11.2969 22.9124C2.23124 22.8983 1.89374 22.8936 1.73437 22.8093C1.50468 22.6874 1.32187 22.5093 1.20468 22.289L1.10155 22.1015V15.2811C1.10155 8.67646 1.10624 8.45615 1.19062 8.28271C1.3078 8.04365 1.52343 7.83271 1.7578 7.72958C1.93593 7.64521 2.34374 7.64052 11.4094 7.64052C18.4594 7.64052 20.9203 7.65458 21.0516 7.69677ZM22.5422 13.139C22.6312 13.1718 22.7484 13.2561 22.8 13.3265C22.8937 13.4577 22.8984 13.5046 22.8984 15.253C22.8984 16.739 22.8844 17.0718 22.8281 17.1749C22.6922 17.4374 22.6922 17.4374 20.3484 17.4374C17.9578 17.4374 17.8922 17.428 17.3953 17.114C16.2094 16.3499 16.0312 14.7233 17.0297 13.7249C17.3062 13.4483 17.8312 13.1811 18.1969 13.1249C18.6234 13.064 22.3594 13.0733 22.5422 13.139Z" fill="#0E6BA8"/>
<path id="Vector_2" d="M18.0703 14.3015C17.8125 14.4375 17.6906 14.5594 17.5734 14.7984C17.4421 15.0703 17.4421 15.4828 17.5687 15.7312C17.7656 16.1156 18.0515 16.3078 18.4734 16.3453C18.7078 16.3687 18.7875 16.3547 19.0078 16.2469C19.7015 15.9047 19.8421 15.0047 19.2796 14.475C18.9843 14.1937 18.4265 14.114 18.0703 14.3015Z" fill="#0E6BA8"/>
</g>
</g>
<defs>
<clipPath id="clip0_1_1201">
<rect width="24" height="24" fill="white"/>
</clipPath>
</defs>
</svg>
