<svg width="18" height="10" viewBox="0 0 18 10" fill="none" xmlns="http://www.w3.org/2000/svg">
<path fill-rule="evenodd" clip-rule="evenodd" d="M6.33701 0.249411C6.01451 -0.0789442 5.4869 -0.0836976 5.15854 0.238794L0.916117 4.40546C0.756579 4.56215 0.666708 4.77639 0.666708 5C0.666708 5.22362 0.756579 5.43785 0.916117 5.59454L5.15854 9.76121C5.4869 10.0837 6.01452 10.0789 6.33701 9.75059C6.6595 9.42224 6.65475 8.89462 6.32639 8.57213L3.5378 5.83334L16.5 5.83333C16.9603 5.83333 17.3334 5.46024 17.3334 5C17.3334 4.53976 16.9603 4.16667 16.5 4.16667L3.5378 4.16667L6.32639 1.42787C6.65475 1.10538 6.6595 0.577767 6.33701 0.249411Z" fill="#0E6BA8"/>
</svg>
