<svg width="40" height="40" viewBox="0 0 40 40" fill="none" xmlns="http://www.w3.org/2000/svg">
<circle cx="20" cy="20" r="20" fill="#4792C8"/>
<g clip-path="url(#clip0_1_864)">
<path d="M16.761 19.2962C16.3177 19.1685 15.8744 19.1038 15.4431 19.1038C14.7772 19.1038 14.2215 19.256 13.7906 19.4423C14.206 17.9216 15.2039 15.2977 17.1917 15.0022C17.3758 14.9748 17.5267 14.8417 17.5769 14.6625L18.0114 13.1086C18.048 12.9771 18.0263 12.8365 17.9513 12.7224C17.8764 12.6084 17.7559 12.5323 17.6209 12.5138C17.4742 12.4938 17.3246 12.4836 17.1764 12.4836C14.7904 12.4836 12.4274 14.974 11.4303 18.54C10.8449 20.632 10.6733 23.7773 12.1151 25.757C12.9219 26.8648 14.0989 27.4563 15.6136 27.5154C15.6198 27.5156 15.6259 27.5158 15.6321 27.5158C17.501 27.5158 19.1582 26.2572 19.6623 24.4553C19.9635 23.3781 19.8274 22.2485 19.2787 21.2736C18.7358 20.3097 17.8418 19.6071 16.761 19.2962Z" fill="white"/>
<path d="M28.4597 21.2738C27.9168 20.3097 27.0228 19.6072 25.942 19.2962C25.4987 19.1685 25.0553 19.1038 24.6243 19.1038C23.9583 19.1038 23.4025 19.256 22.9716 19.4423C23.387 17.9216 24.3849 15.2977 26.3729 15.0022C26.557 14.9748 26.7077 14.8417 26.7581 14.6625L27.1925 13.1086C27.2292 12.9771 27.2074 12.8365 27.1325 12.7224C27.0577 12.6084 26.9373 12.5323 26.8021 12.5138C26.6555 12.4938 26.506 12.4836 26.3576 12.4836C23.9716 12.4836 21.6086 14.974 20.6112 18.54C20.0261 20.632 19.8545 23.7773 21.2964 25.7574C22.1031 26.865 23.2803 27.4567 24.7948 27.5156C24.801 27.5158 24.8071 27.516 24.8135 27.516C26.6822 27.516 28.3396 26.2574 28.8437 24.4555C29.1445 23.3783 29.0082 22.2485 28.4597 21.2738Z" fill="white"/>
</g>
<defs>
<clipPath id="clip0_1_864">
<rect width="18.0002" height="18" fill="white" transform="translate(11 11)"/>
</clipPath>
</defs>
</svg>
