<svg width="204" height="77" viewBox="0 0 204 77" fill="none" xmlns="http://www.w3.org/2000/svg">
<path d="M203.5 0.375244L186.278 2.22387L196.49 16.2139L203.5 0.375244ZM0.231672 75.3511C1.20181 75.5274 2.23113 75.6879 3.31797 75.8305L3.70833 72.856C2.66664 72.7193 1.68627 72.5663 0.768328 72.3994L0.231672 75.3511ZM9.53258 76.4057C11.4643 76.5186 13.5231 76.5843 15.7041 76.5961L15.7203 73.5961C13.589 73.5846 11.5833 73.5205 9.70771 73.4108L9.53258 76.4057ZM21.9045 76.4913C23.8761 76.4164 25.9281 76.301 28.0577 76.1413L27.8333 73.1497C25.7395 73.3068 23.7244 73.42 21.7907 73.4934L21.9045 76.4913ZM34.2148 75.5759C36.2042 75.3608 38.2513 75.109 40.3546 74.8179L39.9434 71.8463C37.8692 72.1333 35.8516 72.3814 33.8923 72.5933L34.2148 75.5759ZM46.4442 73.8891C48.4205 73.5603 50.4404 73.1981 52.5028 72.8006L51.9351 69.8548C49.8976 70.2475 47.9027 70.6052 45.9518 70.9298L46.4442 73.8891ZM58.5353 71.562C60.502 71.1337 62.5035 70.6742 64.5388 70.1821L63.8338 67.2661C61.8205 67.7529 59.8412 68.2073 57.8969 68.6307L58.5353 71.562ZM70.5124 68.6683C72.4639 68.1513 74.4438 67.6049 76.4513 67.028L75.6228 64.1447C73.6352 64.7158 71.6754 65.2567 69.7441 65.7684L70.5124 68.6683ZM82.3354 65.2729C84.262 64.6773 86.2122 64.0541 88.1852 63.4023L87.2442 60.5537C85.2894 61.1995 83.3576 61.8168 81.4494 62.4067L82.3354 65.2729ZM94.003 61.4196C95.9126 60.749 97.842 60.052 99.7909 59.3277L98.7458 56.5157C96.8139 57.2336 94.9014 57.9245 93.009 58.5891L94.003 61.4196ZM105.551 57.129C107.436 56.3905 109.338 55.6267 111.256 54.8371L110.114 52.0629C108.212 52.8461 106.326 53.6034 104.457 54.3357L105.551 57.129ZM116.907 52.4561C118.768 51.6538 120.644 50.8273 122.534 49.976L121.301 47.2407C119.426 48.0854 117.565 48.9053 115.719 49.7012L116.907 52.4561ZM128.139 47.3974C129.969 46.5379 131.812 45.6553 133.667 44.7491L132.35 42.0536C130.508 42.9531 128.68 43.829 126.863 44.682L128.139 47.3974ZM139.161 42.0133C140.976 41.0925 142.802 40.1493 144.639 39.183L143.243 36.5279C141.419 37.4873 139.606 38.4238 137.804 39.3379L139.161 42.0133ZM150.047 36.2887C151.826 35.3195 153.616 34.3288 155.415 33.3161L153.944 30.7019C152.157 31.7076 150.38 32.6915 148.612 33.654L150.047 36.2887ZM160.773 30.251C162.521 29.2351 164.277 28.1986 166.041 27.1411L164.498 24.568C162.746 25.6186 161.001 26.6482 159.265 27.6573L160.773 30.251ZM171.292 23.9452C173.023 22.8762 174.762 21.787 176.507 20.6772L174.898 18.1455C173.163 19.2483 171.436 20.3306 169.716 21.3928L171.292 23.9452ZM181.654 17.359C183.363 16.242 185.078 15.1054 186.799 13.9488L185.127 11.4585C183.415 12.6082 181.71 13.7379 180.012 14.8479L181.654 17.359ZM191.852 10.5094C193.529 9.35326 195.211 8.17821 196.899 6.98395L195.166 4.53501C193.488 5.72232 191.815 6.89046 190.149 8.03971L191.852 10.5094Z" fill="#0E6BA8"/>
</svg>
