<svg width="222" height="56" viewBox="0 0 222 56" fill="none" xmlns="http://www.w3.org/2000/svg">
<path d="M221.5 55.8752L214.423 40.0663L204.271 54.0994L221.5 55.8752ZM1.63247 15.7353C2.46378 15.3487 3.33273 14.963 4.23854 14.5793L3.06857 11.8169C2.1322 12.2134 1.23154 12.6133 0.367534 13.015L1.63247 15.7353ZM9.6035 12.494C11.3367 11.8749 13.1673 11.2695 15.0914 10.684L14.2181 7.81393C12.25 8.41281 10.3741 9.03313 8.59446 9.66874L9.6035 12.494ZM20.6836 9.11135C22.4949 8.64167 24.3731 8.1914 26.3157 7.76462L25.6719 4.8345C23.6933 5.26921 21.7787 5.72818 19.9306 6.20739L20.6836 9.11135ZM31.9914 6.62139C33.8485 6.28026 35.7556 5.96133 37.711 5.66757L37.2653 2.70086C35.2779 2.99944 33.3386 3.32372 31.4494 3.67076L31.9914 6.62139ZM43.4631 4.89508C45.3497 4.67121 47.2757 4.47116 49.2397 4.29724L48.9751 1.30894C46.9814 1.48548 45.0257 1.6886 43.1096 1.91598L43.4631 4.89508ZM55.0347 3.86859C56.9394 3.75513 58.8761 3.66652 60.8436 3.60464L60.7492 0.606123C58.7537 0.668886 56.789 0.758777 54.8563 0.873893L55.0347 3.86859ZM66.6624 3.50174C68.5696 3.49407 70.503 3.51171 72.4616 3.55627L72.5298 0.557042C70.5444 0.511878 68.5842 0.493982 66.6504 0.501764L66.6624 3.50174ZM78.2592 3.76466C80.1696 3.85842 82.102 3.97796 84.0554 4.12464L84.28 1.13307C82.3007 0.984438 80.3425 0.863295 78.4063 0.768267L78.2592 3.76466ZM89.8482 4.63433C91.7591 4.82705 93.6886 5.04593 95.636 5.29216L96.0123 2.31586C94.0398 2.06644 92.0852 1.84472 90.1492 1.64947L89.8482 4.63433ZM101.393 6.09313C103.285 6.38044 105.193 6.69376 107.116 7.03416L107.639 4.08008C105.692 3.73539 103.76 3.41809 101.843 3.12712L101.393 6.09313ZM112.829 8.11717C114.716 8.49866 116.616 8.90642 118.529 9.34138L119.194 6.41605C117.257 5.97573 115.334 5.56292 113.423 5.17666L112.829 8.11717ZM124.175 10.6958C126.035 11.1652 127.905 11.6606 129.787 12.1827L130.589 9.2919C128.685 8.76353 126.791 8.26219 124.909 7.78706L124.175 10.6958ZM135.383 13.8058C137.223 14.3628 139.073 14.9456 140.932 15.5549L141.866 12.7042C139.986 12.0877 138.114 11.498 136.252 10.9344L135.383 13.8058ZM146.425 17.4245C148.242 18.0659 150.067 18.7329 151.9 19.4262L152.962 16.6203C151.108 15.919 149.262 15.2444 147.423 14.5956L146.425 17.4245ZM157.316 21.5432C159.096 22.2619 160.883 23.0056 162.677 23.775L163.86 21.018C162.046 20.2401 160.239 19.488 158.438 18.7613L157.316 21.5432ZM168.021 26.1359C169.766 26.9293 171.516 27.7472 173.272 28.5903L174.571 25.8859C172.796 25.0337 171.027 24.2069 169.262 23.4049L168.021 26.1359ZM178.495 31.1652C180.215 32.0354 181.939 32.9299 183.668 33.8493L185.077 31.2006C183.33 30.2716 181.587 29.3677 179.849 28.4883L178.495 31.1652ZM188.765 36.626C190.456 37.5691 192.15 38.5363 193.849 39.5281L195.362 36.9376C193.646 35.9358 191.934 34.9588 190.226 34.006L188.765 36.626ZM198.817 42.4948C200.467 43.5012 202.119 44.5311 203.775 45.5848L205.386 43.0541C203.714 41.9902 202.046 40.9502 200.38 39.9339L198.817 42.4948ZM208.642 48.748C210.25 49.8141 211.86 50.903 213.472 52.0151L215.176 49.5456C213.549 48.4232 211.923 47.324 210.3 46.2477L208.642 48.748Z" fill="#0E6BA8"/>
</svg>
